<svg viewBox="0 0 252 252" fill="none" xmlns="http://www.w3.org/2000/svg">
<style>
    path, circle { stroke: #161810; }
    @media (prefers-color-scheme: dark) {
      path, circle { stroke: #ECEFE6; }
    }
  </style>
<path d="M106.151 17.2392L107.887 17.0077V15.2568V2H116.628V14.2046V16.3398L118.759 16.2003C123.821 15.8689 129.084 16.1619 134.268 16.57L136.425 16.7399V14.5762V2H145.062V15.2568V16.9857L146.773 17.2358C203.199 25.484 243 74.2471 243 133.102C243 197.661 190.619 250 126 250C61.3811 250 9 197.661 9 133.102C9 73.7369 49.0269 24.8605 106.151 17.2392Z" stroke-width="6"/>
<circle cx="125.5" cy="133.5" r="107.5" stroke-width="6"/>
<path d="M145.697 4.5H155.255V3C155.255 1.89543 156.151 1 157.255 1H166C167.105 1 168 1.89543 168 3V11C168 12.1046 167.105 13 166 13H157.255C156.151 13 155.255 12.1046 155.255 11V10H145.697M136.138 4.5H117.021M136.138 10H117.021M106.931 10H91V4.5H106.931" stroke-width="4"/>
</svg>
